#!OML:ASF H:\Terrain\Patient Classification 1\Walking\steve\steve.ASF
:FULLY-SPECIFIED
:DEGREES
16
root 6.82067 14.9688 -40.2164 7.41007 -5.66854 -2.53856
lowerback -0.551225 3.97409 1.41148
upperback -3.4894 5.29612 -1.22317
thorax -3.03594 2.58905 -2.14466
lowerneck -8.05948 -3.07857 -1.44193
upperneck 10.5221 -4.64291 5.69347
head 4.64561 -2.00135 1.69121
rclavicle -1.45641e-014 -1.43125e-014
rhumerus -36.1355 0.149894 -88.8446
rradius 63.9327
rwrist -12.8133
rhand -21.5649 -30.1414
rfingers 7.12502
rthumb 4.8289 -60.0664
lclavicle -1.45641e-014 -1.43125e-014
lhumerus -63.2358 29.17 41.4383
lradius 3.64395
lwrist -36.0017
lhand -16.626 -18.8746
lfingers 7.12502
lthumb 9.59621 10.8868
rfemur 3.93168 4.57118 23.5878
rtibia 42.1669
rfoot 25.8019 1.8734
rtoes 1.04882
lfemur -40.9581 2.12845 -18.72
ltibia 35.3192
lfoot -3.87817 2.33419
ltoes -0.0765502
17
root 6.84711 15.0184 -39.959 7.03918 -5.71698 -1.99162
lowerback -0.0611706 3.8834 0.974905
upperback -3.50511 5.16863 -1.35027
thorax -3.35987 2.53087 -2.07145
lowerneck -8.11515 -2.94588 -1.72482
upperneck 10.7032 -4.43101 5.64397
head 4.70709 -1.90739 1.73495
rclavicle 3.10228e-014 1.19271e-015
rhumerus -37.1309 -0.215327 -88.8714
rradius 62.9606
rwrist -13.9189
rhand -24.3634 -33.1116
rfingers 7.12502
rthumb 2.12637 -63.0807
lclavicle 3.10228e-014 1.19271e-015
lhumerus -63.7111 29.34 41.3
lradius 3.98481
lwrist -36.9562
lhand -20.1173 -19.3105
lfingers 7.12502
lthumb 6.22654 10.578
rfemur 2.5688 4.97425 22.9095
rtibia 45.6928
rfoot 27.4035 -2.70388
rtoes 8.32135
lfemur -39.8168 1.68487 -19.3397
ltibia 35.9343
lfoot -4.99389 1.99901
ltoes 2.89128
18
root 6.8711 15.0594 -39.7099 6.80649 -6.02414 -1.49203
lowerback 0.54971 3.87475 0.495385
upperback -3.71735 5.14344 -1.46188
thorax -3.95752 2.52232 -1.97972
lowerneck -7.98299 -2.86922 -1.83721
upperneck 10.9547 -4.30438 5.46541
head 4.75523 -1.85863 1.70776
rclavicle -2.08879e-015 8.34896e-015
rhumerus -38.4354 -0.666863 -88.9095
rradius 61.9991
rwrist -14.6586
rhand -23.7377 -33.1269
rfingers 7.12502
rthumb 2.73065 -63.0892
lclavicle -2.08879e-015 8.34896e-015
lhumerus -64.0912 29.5529 41.1533
lradius 5.37324
lwrist -35.5245
lhand -16.4252 -17.2086
lfingers 7.12502
lthumb 9.78993 12.5438
rfemur 0.776943 5.26513 22.2985
rtibia 49.1759
rfoot 28.2446 -7.66215
rtoes 12.2192
lfemur -38.7276 1.87661 -20.2035
ltibia 36.3193
lfoot -5.50042 1.60451
ltoes -0.248302
19
root 6.89381 15.0956 -39.4673 6.58802 -6.45084 -0.930722
lowerback 0.981001 3.91992 -0.0334658
upperback -3.7263 5.17963 -1.63653
thorax -4.24035 2.55116 -1.90376
lowerneck -7.69788 -2.57532 -1.67698
upperneck 9.87418 -3.87974 5.51363
head 4.35822 -1.66398 1.7307
rclavicle -3.89727e-014 -2.06736e-014
rhumerus -39.0964 -1.27565 -88.9605
rradius 60.7034
rwrist -15.2559
rhand -23.5053 -33.6758
rfingers 7.12502
rthumb 2.95509 -63.6351
lclavicle -3.89727e-014 -2.06736e-014
lhumerus -63.7907 30.1464 41.2052
lradius 5.43152
lwrist -35.6211
lhand -18.3769 -19.2552
lfingers 7.12502
lthumb 7.90662 10.577
rfemur -1.17663 5.46464 21.6392
rtibia 52.6391
rfoot 28.0204 -10.8176
rtoes 14.1163
lfemur -37.6406 1.99036 -21.0435
ltibia 36.6446
lfoot -6.26481 1.51623
ltoes -2.8289
20
root 6.91884 15.1274 -39.2296 6.29451 -6.69455 -0.4142
lowerback 1.31795 3.92412 -0.478401
upperback -3.57642 5.16189 -1.78735
thorax -4.30129 2.55377 -1.8319
lowerneck -8.30949 -2.33001 -1.75549
upperneck 9.97528 -3.57128 5.76806
head 4.48624 -1.48875 1.83505
rclavicle -1.43113e-014 -2.26615e-014
rhumerus -39.3245 -1.86212 -88.9759
rradius 59.1478
rwrist -15.9501
rhand -23.444 -34.954
rfingers 7.12502
rthumb 3.01434 -64.9124
lclavicle -1.43113e-014 -2.26615e-014
lhumerus -62.9849 31.1508 41.5502
lradius 5.06498
lwrist -35.9842
lhand -21.7042 -14.5764
lfingers 7.12502
lthumb 4.6944 15.3516
rfemur -3.07079 5.51471 21.0688
rtibia 56.0964
rfoot 26.1369 -10.8639
rtoes 10.8005
lfemur -36.498 1.76757 -21.7131
ltibia 37.0301
lfoot -7.376 1.52164
ltoes -1.89947
21
root 6.94149 15.1471 -39.0064 6.09502 -6.93281 -0.310223
lowerback 1.79622 3.88401 -0.500311
upperback -3.56171 5.1002 -1.80709
thorax -4.55879 2.52054 -1.87431
lowerneck -8.85175 -2.10809 -2.15877
upperneck 10.587 -3.3001 6.20951
head 4.76803 -1.32498 2.05126
rclavicle -5.46495e-014 1.74931e-014
rhumerus -39.861 -2.24791 -89.0548
rradius 57.682
rwrist -16.6257
rhand -23.3083 -35.9849
rfingers 7.12502
rthumb 3.14534 -65.9414
lclavicle -5.46495e-014 1.74931e-014
lhumerus -62.2199 32.3701 41.8553
lradius 4.83153
lwrist -35.8019
lhand -23.2648 -10.8459
lfingers 7.12502
lthumb 3.1874 19.11
rfemur -5.05259 5.74233 21.0067
rtibia 59.4617
rfoot 21.7438 -8.92465
rtoes 0.87159
lfemur -35.5264 1.83664 -22.0166
ltibia 37.3576
lfoot -8.2528 1.47546
ltoes -2.27113
22
root 6.95934 15.153 -38.7961 6.02313 -7.37203 -0.428284
lowerback 2.23404 3.89911 -0.469613
upperback -3.61173 5.12048 -1.68231
thorax -4.86789 2.52836 -1.80181
lowerneck -8.13222 -2.05085 -1.70009
upperneck 9.8234 -3.15509 5.42428
head 4.38697 -1.30742 1.74882
rclavicle -6.03707e-014 -3.18055e-015
rhumerus -40.5156 -2.53745 -89.0629
rradius 56.1462
rwrist -17.0929
rhand -23.3877 -36.4841
rfingers 7.12502
rthumb 3.06867 -66.4417
lclavicle -6.03707e-014 -3.18055e-015
lhumerus -61.689 33.5886 42.1625
lradius 4.88246
lwrist -35.8508
lhand -24.2228 -7.26785
lfingers 7.12502
lthumb 2.26222 22.6999
rfemur -7.1257 6.33026 21.1717
rtibia 62.7256
rfoot 18.8499 -8.52581
rtoes 10.1892
lfemur -34.6618 2.12644 -22.0734
ltibia 37.4395
lfoot -9.05838 1.60429
ltoes -3.76127
23
root 6.97809 15.1836 -38.5637 5.95988 -7.65137 0.0744186
lowerback 2.25467 3.83057 -1.13999
upperback -3.60425 4.99889 -1.62201
thorax -4.93837 2.49292 -1.36493
lowerneck -8.23745 -1.83197 -1.82403
upperneck 10.0862 -2.83823 5.27264
head 4.47232 -1.15945 1.74186
rclavicle 6.32267e-014 -2.78299e-015
rhumerus -41.0785 -2.76214 -88.9599
rradius 54.3671
rwrist -17.1853
rhand -23.7276 -37.8114
rfingers 7.12502
rthumb 2.74039 -67.7735
lclavicle 6.32267e-014 -2.78299e-015
lhumerus -61.7436 34.6612 42.3632
lradius 5.7753
lwrist -36.1375
lhand -24.5463 -4.29512
lfingers 7.12502
lthumb 1.94975 25.6757
rfemur -9.65374 6.22105 20.6111
rtibia 65.6984
rfoot 16.4997 -5.09557
rtoes 3.55197
lfemur -33.5003 2.07216 -22.7806
ltibia 37.1485
lfoot -9.94364 1.78312
ltoes -4.35418
